<svg width="31" height="31" viewBox="0 0 31 31" fill="none" xmlns="http://www.w3.org/2000/svg">
<path d="M20.8 10.1007C21.4973 10.7973 22.0505 11.6244 22.428 12.5349C22.8054 13.4454 22.9997 14.4214 22.9997 15.407C22.9997 16.3926 22.8054 17.3685 22.428 18.279C22.0505 19.1895 21.4973 20.0167 20.8 20.7132M10.2 20.7007C9.50269 20.0042 8.9495 19.177 8.57207 18.2665C8.19464 17.356 8.00037 16.3801 8.00037 15.3945C8.00037 14.4089 8.19464 13.4329 8.57207 12.5224C8.9495 11.6119 9.50269 10.7848 10.2 10.0882M24.3375 6.56323C26.6809 8.90733 27.9973 12.0862 27.9973 15.4007C27.9973 18.7153 26.6809 21.8941 24.3375 24.2382M6.66252 24.2382C4.31913 21.8941 3.00269 18.7153 3.00269 15.4007C3.00269 12.0862 4.31913 8.90733 6.66252 6.56323M18 15.4007C18 16.7814 16.8807 17.9007 15.5 17.9007C14.1193 17.9007 13 16.7814 13 15.4007C13 14.02 14.1193 12.9007 15.5 12.9007C16.8807 12.9007 18 14.02 18 15.4007Z" stroke="#12008F" stroke-width="1.8" stroke-linecap="round" stroke-linejoin="round"/>
</svg>
