<svg width="32" height="32" viewBox="0 0 32 32" fill="none" xmlns="http://www.w3.org/2000/svg">
<path d="M10.963 8.00004C10.2675 8.00004 9.7037 8.59699 9.7037 9.33337C9.7037 10.0698 10.2675 10.6667 10.963 10.6667H21.037C21.7325 10.6667 22.2963 10.0698 22.2963 9.33337C22.2963 8.59699 21.7325 8.00004 21.037 8.00004H10.963Z" fill="#0F973D"/>
<path d="M9.7037 16C9.7037 15.2637 10.2675 14.6667 10.963 14.6667H21.037C21.7325 14.6667 22.2963 15.2637 22.2963 16C22.2963 16.7364 21.7325 17.3334 21.037 17.3334H10.963C10.2675 17.3334 9.7037 16.7364 9.7037 16Z" fill="#0F973D"/>
<path d="M10.963 21.3334C10.2675 21.3334 9.7037 21.9303 9.7037 22.6667C9.7037 23.4031 10.2675 24 10.963 24H14.321C15.0165 24 15.5802 23.4031 15.5802 22.6667C15.5802 21.9303 15.0165 21.3334 14.321 21.3334H10.963Z" fill="#0F973D"/>
<path d="M17.679 21.3334C16.9835 21.3334 16.4198 21.9303 16.4198 22.6667C16.4198 23.4031 16.9835 24 17.679 24H21.037C21.7325 24 22.2963 23.4031 22.2963 22.6667C22.2963 21.9303 21.7325 21.3334 21.037 21.3334H17.679Z" fill="#0F973D"/>
<path fill-rule="evenodd" clip-rule="evenodd" d="M20.3845 29.2017C20.5261 29.2392 20.6634 29.2929 20.7939 29.362C23.7983 30.9526 27.3333 28.6394 27.3333 25.0827V6.66671C27.3333 3.72119 25.0782 1.33337 22.2963 1.33337H9.7037C6.92183 1.33337 4.66667 3.72119 4.66667 6.66671V25.0827C4.66667 28.6394 8.20166 30.9526 11.2061 29.362C11.3366 29.2929 11.4739 29.2392 11.6155 29.2017L15.3892 28.2028C15.7902 28.0966 16.2098 28.0966 16.6108 28.2028L20.3845 29.2017ZM7.18519 6.66671C7.18519 5.19395 8.31277 4.00004 9.7037 4.00004H22.2963C23.6872 4.00004 24.8148 5.19395 24.8148 6.66671V25.0827C24.8148 26.657 23.2501 27.6809 21.9202 26.9769C21.6253 26.8208 21.3152 26.6993 20.9953 26.6146L17.2217 25.6157C16.4196 25.4034 15.5804 25.4034 14.7783 25.6157L11.0047 26.6146C10.6848 26.6993 10.3747 26.8208 10.0798 26.9769C8.74991 27.6809 7.18519 26.657 7.18519 25.0827V6.66671Z" fill="#0F973D"/>
</svg>
